<svg xmlns="http://www.w3.org/2000/svg" viewBox="0 0 100 100"><rect width="100" height="100" rx="22" fill="#F3F1EA"/><g fill="#14161A"><circle cx="34" cy="18" r="3.83"/><circle cx="50" cy="18" r="4.67"/><circle cx="66" cy="18" r="3.83"/><circle cx="18" cy="34" r="3.83"/><circle cx="34" cy="34" r="5.87"/><circle cx="50" cy="34" r="6.36"/><circle cx="82" cy="34" r="3.83"/><circle cx="18" cy="50" r="4.67"/><circle cx="34" cy="50" r="6.36"/><circle cx="50" cy="50" r="6.8"/><circle cx="66" cy="50" r="6.36"/><circle cx="82" cy="50" r="4.67"/><circle cx="18" cy="66" r="3.83"/><circle cx="34" cy="66" r="5.87"/><circle cx="50" cy="66" r="6.36"/><circle cx="66" cy="66" r="5.87"/><circle cx="82" cy="66" r="3.83"/><circle cx="34" cy="82" r="3.83"/><circle cx="50" cy="82" r="4.67"/><circle cx="66" cy="82" r="3.83"/></g><circle cx="66" cy="34" r="7.2" fill="#C2410C"/></svg>
