<svg xmlns="http://www.w3.org/2000/svg" viewBox="0 0 64 64">
	<rect width="64" height="64" rx="14" fill="#000000"/>
	<path fill="#FFFFFF" d="M31.28 53.00Q26.95 53.00 23.26 51.43Q19.57 49.86 16.81 47.03Q14.05 44.19 12.52 40.37Q11.00 36.54 11.00 32.03Q11.00 27.59 12.47 23.78Q13.93 19.96 16.61 17.08Q19.29 14.19 22.95 12.60Q26.61 11.00 30.99 11.00Q36.30 11.00 40.27 13.00Q44.25 15.01 46.83 18.32Q49.41 21.64 50.46 25.62H47.48Q46.57 22.21 44.40 19.45Q42.23 16.68 38.86 15.06Q35.50 13.44 30.92 13.44Q25.83 13.44 21.98 15.87Q18.14 18.31 15.98 22.50Q13.82 26.69 13.82 32.06Q13.82 37.37 16.04 41.57Q18.26 45.77 22.21 48.19Q26.15 50.61 31.28 50.61Q36.14 50.61 39.74 48.67Q43.34 46.74 45.52 43.17Q47.69 39.60 48.20 34.79H30.98V32.51H51.01Q50.89 37.25 49.42 41.03Q47.95 44.81 45.36 47.50Q42.76 50.18 39.19 51.59Q35.61 53.00 31.28 53.00Z"/>
	<path fill="#22C55E" d="M55.01 47.18C55.01 43.67 52.64 41.24 49.18 41.24C45.73 41.24 43.30 43.67 43.30 47.18C43.30 50.64 45.73 53.07 49.18 53.07C52.64 53.07 55.01 50.64 55.01 47.18Z"/>
</svg>
